<svg xmlns="http://www.w3.org/2000/svg" width="900" height="540" viewBox="0 0 900 540">
<style>
text { font-family: -apple-system, BlinkMacSystemFont, "Segoe UI", sans-serif; fill: #111827; }
.grid { stroke: #e5e7eb; stroke-width: 1; }
.axis { stroke: #374151; stroke-width: 1.5; }
.train { fill: none; stroke: #2563eb; stroke-width: 2.5; }
.eval { fill: none; stroke: #dc2626; stroke-width: 2.5; }
.tick { font-size: 12px; }
.title { font-size: 20px; font-weight: 600; }
.legend { font-size: 13px; }
</style>
<rect width="100%" height="100%" fill="white"/>
<text x="450" y="30" text-anchor="middle" class="title">Qwen3-0.6B IID SFT Loss Curve</text>
<line x1="80.00" y1="60" x2="80.00" y2="480" class="grid"/>
<text x="80.00" y="502" text-anchor="middle" class="tick">1</text>
<line x1="277.50" y1="60" x2="277.50" y2="480" class="grid"/>
<text x="277.50" y="502" text-anchor="middle" class="tick">282</text>
<line x1="475.00" y1="60" x2="475.00" y2="480" class="grid"/>
<text x="475.00" y="502" text-anchor="middle" class="tick">563</text>
<line x1="672.50" y1="60" x2="672.50" y2="480" class="grid"/>
<text x="672.50" y="502" text-anchor="middle" class="tick">844</text>
<line x1="870.00" y1="60" x2="870.00" y2="480" class="grid"/>
<text x="870.00" y="502" text-anchor="middle" class="tick">1125</text>
<line x1="80" y1="480.00" x2="870" y2="480.00" class="grid"/>
<text x="70" y="484.00" text-anchor="end" class="tick">0.00</text>
<line x1="80" y1="375.00" x2="870" y2="375.00" class="grid"/>
<text x="70" y="379.00" text-anchor="end" class="tick">1.49</text>
<line x1="80" y1="270.00" x2="870" y2="270.00" class="grid"/>
<text x="70" y="274.00" text-anchor="end" class="tick">2.98</text>
<line x1="80" y1="165.00" x2="870" y2="165.00" class="grid"/>
<text x="70" y="169.00" text-anchor="end" class="tick">4.47</text>
<line x1="80" y1="60.00" x2="870" y2="60.00" class="grid"/>
<text x="70" y="64.00" text-anchor="end" class="tick">5.96</text>
<line x1="80" y1="480" x2="870" y2="480" class="axis"/>
<line x1="80" y1="60" x2="80" y2="480" class="axis"/>
<text x="475.00" y="525" text-anchor="middle">Step</text>
<text x="20" y="270.00" transform="rotate(-90 20 270.00)" text-anchor="middle">Loss</text>
<polyline points="80.00,60.00 86.33,274.41 93.35,418.43 100.38,399.51 107.41,442.09 114.44,368.96 121.47,398.91 128.50,421.94 135.52,398.02 142.55,416.78 149.58,376.05 156.61,439.54 163.64,453.05 170.67,461.18 177.70,426.26 184.72,418.65 191.75,445.18 198.78,456.79 205.81,415.44 212.84,438.43 219.87,413.92 226.90,432.80 233.92,429.44 240.95,428.70 247.98,411.35 255.01,450.35 262.04,480.00 269.07,332.02 276.09,446.32 283.12,359.12 290.15,419.64 297.18,445.12 304.21,386.38 311.24,439.99 318.27,435.82 325.29,446.35 332.32,446.87 339.35,236.47 346.38,442.55 353.41,393.05 360.44,431.55 367.46,395.23 374.49,404.79 381.52,393.89 388.55,428.87 395.58,463.15 402.61,421.33 409.64,421.27 416.66,438.24 423.69,449.16 430.72,430.47 437.75,418.43 444.78,408.79 451.81,420.90 458.83,437.83 465.86,458.19 472.89,448.44 479.92,430.29 486.95,433.86 493.98,444.39 501.01,419.55 508.03,439.02 515.06,439.60 522.09,414.37 529.12,394.65 536.15,434.42 543.18,419.04 550.20,448.33 557.23,414.15 564.26,455.21 571.29,406.14 578.32,446.53 585.35,431.55 592.38,440.53 599.40,422.37 606.43,439.30 613.46,418.84 620.49,408.84 627.52,417.35 634.55,382.36 641.57,458.55 648.60,431.31 655.63,434.45 662.66,459.73 669.69,428.51 676.72,414.82 683.75,392.57 690.77,400.41 697.80,450.73 704.83,422.79 711.86,453.81 718.89,455.98 725.92,441.61 732.94,435.36 739.97,446.03 747.00,391.28 754.03,435.00 761.06,444.59 768.09,395.97 775.12,451.17 782.14,451.94 789.17,469.19 796.20,439.49 803.23,360.88 810.26,422.95 817.29,448.49 824.31,443.88 831.34,389.91 838.37,459.05 845.40,369.96 852.43,429.47 859.46,430.52 866.49,445.57" class="train"/>
<polyline points="342.86,nan 606.43,nan 870.00,nan" class="eval"/>
<line x1="90" y1="70" x2="110" y2="70" class="train"/>
<text x="118" y="74" class="legend">train_loss</text>
<line x1="90" y1="92" x2="110" y2="92" class="eval"/>
<text x="118" y="96" class="legend">eval_loss</text>
</svg>